<?xml version="1.0" encoding="UTF-8" standalone="no"?>
<!-- Created with Inkscape (http://www.inkscape.org/) -->

<svg
   width="200px"
   height="200px"
   viewBox="0 0 200 200"
   version="1.1"
   id="SVGRoot"
   sodipodi:docname="200x200svg.svg"
   inkscape:version="1.1.1 (3bf5ae0d25, 2021-09-20)"
   xmlns:inkscape="http://www.inkscape.org/namespaces/inkscape"
   xmlns:sodipodi="http://sodipodi.sourceforge.net/DTD/sodipodi-0.dtd"
   xmlns="http://www.w3.org/2000/svg"
   xmlns:svg="http://www.w3.org/2000/svg">
  <sodipodi:namedview
     id="namedview9357"
     pagecolor="#505050"
     bordercolor="#eeeeee"
     borderopacity="1"
     inkscape:pageshadow="0"
     inkscape:pageopacity="0"
     inkscape:pagecheckerboard="0"
     inkscape:document-units="px"
     showgrid="false"
     inkscape:zoom="2.9647586"
     inkscape:cx="44.35437"
     inkscape:cy="98.996256"
     inkscape:window-width="1920"
     inkscape:window-height="1017"
     inkscape:window-x="1272"
     inkscape:window-y="-8"
     inkscape:window-maximized="1"
     inkscape:current-layer="layer1"
     inkscape:lockguides="true" />
  <defs
     id="defs9352" />
  <g
     inkscape:label="Warstwa 1"
     inkscape:groupmode="layer"
     id="layer1">
    <ellipse
       style="fill:#fbbebe;fill-opacity:1;stroke-width:0.247993"
       id="path524"
       cx="36.321682"
       cy="115.5155"
       rx="9.0824347"
       ry="10.187308" />
    <g
       id="f9b32178-6d95-472d-b482-6662972666de"
       data-name="Group 100"
       transform="matrix(0.18225099,0,0,0.19529545,4.3358372,84.232262)">
      <path
         id="f4b94a19-cbe0-459a-95a6-6ea3b3d72055"
         data-name="Path 1465"
         d="m 675.14672,628.10046 a 11.49,11.49 0 1 0 11.49,11.49 v 0 a 11.49,11.49 0 0 0 -11.49,-11.49 z m 0,18.561 a 7.071,7.071 0 1 1 7.071,-7.071 v 6e-5 a 7.071,7.071 0 0 1 -7.071,7.07091 z"
         transform="translate(-113.2693,-156.48744)"
         fill="#e4e4e4" />
      <path
         id="abc0e0b3-f22e-4bee-9929-c6879640924e"
         data-name="Path 1467"
         d="m 630.95367,619.26144 h 44.193 v 43.739 a 5.757,5.757 0 0 1 -5.757,5.757 h -32.679 a 5.757,5.757 0 0 1 -5.757,-5.757 z"
         transform="translate(-113.2693,-156.48744)"
         fill="#e4e4e4" />
    </g>
    <path
       id="e24b6f19-a0a0-4e73-9cfc-bbb7635ad236"
       data-name="Path 944"
       d="M 165.48982,184.38874 H 44.431962 a 0.18334449,0.19646722 0 0 1 0,-0.39059 H 165.48982 a 0.18334449,0.19646722 0 0 1 0,0.39059 z"
       fill="#cacaca"
       style="stroke-width:0.188661" />
    <polygon
       points="161.695,540.208 167.759,510.228 89.41,494.381 85.302,514.694 "
       fill="#ffb6b6"
       id="polygon6"
       transform="matrix(0.18225099,0,0,0.19529545,4.3358372,84.232262)" />
    <path
       d="m 22.030635,180.0328 -1.47463,7.81239 -6.3e-5,3e-4 a 4.7404668,5.0797616 0 0 1 -5.585944,3.97144 l -0.15098,-0.0327 2.414429,-12.79113 z"
       fill="#2f2e41"
       id="path8"
       style="stroke-width:0.188661" />
    <path
       id="a8c9bbe2-1461-49cf-8211-f8d251166dc5"
       data-name="Path 1461"
       d="m 45.237951,107.26988 a 10.918136,11.699591 0 0 0 -6.21131,-5.08782 l -1.160571,0.90753 v -1.17841 a 10.049866,10.769177 0 0 0 -1.877186,-0.11723 l -1.00129,0.97081 v -0.89016 a 10.813873,11.587867 0 0 0 -7.459902,4.75485 c -2.174422,3.35909 -2.54148,8.03231 -0.402757,11.41834 0.58702,-1.93343 1.299624,-3.74752 1.88684,-5.68076 a 5.3398026,5.7219947 0 0 0 1.39111,0.008 l 0.714254,-1.78598 0.199562,1.71041 c 2.213986,-0.20663 5.497784,-0.66049 7.59658,-1.07627 l -0.204117,-1.3122 1.221078,1.09033 c 0.64298,-0.15859 1.024793,-0.3025 0.993271,-0.41246 1.560981,2.69665 3.47133,4.41894 5.032136,7.11559 0.592861,-3.8024 1.275222,-6.96404 -0.717698,-10.43385 z"
       fill="#2f2e41"
       style="stroke-width:0.188661" />
    <ellipse
       id="f6be96d1-713f-4c17-812c-ecd79c56fe95"
       data-name="Ellipse 260"
       cx="39.484097"
       cy="175.00302"
       rx="24.341442"
       ry="7.2960429"
       fill="#2f2e41"
       style="stroke-width:0.188661" />
    <path
       d="m 56.740134,142.05944 c -0.325077,-2.09571 -0.66039,-4.23165 -1.569329,-6.11958 -0.597388,-1.23661 -1.545681,-2.41503 -2.823997,-2.65954 a 2.7318767,2.9274086 0 0 1 -0.735332,-0.1824 c -0.374561,-0.19334 -5.407996,-3.27238 -6.208014,-3.80866 -0.686902,-0.46037 -1.771259,-1.31281 -2.318004,-1.31281 -0.550041,-0.0132 -2.659191,0.51305 -10.891368,-0.17652 a 29.732625,31.860712 0 0 0 -4.011395,2.11345 c -0.02648,-0.0187 -8.544251,4.88265 -8.864264,4.86975 -0.606015,-0.0274 -1.169323,0.38845 -1.516736,0.91204 -0.347336,0.52358 -0.510269,1.17175 -0.680867,1.79848 1.860419,4.43965 3.562627,8.88496 5.42322,13.3246 a 1.0609468,1.1368831 0 0 1 0.134542,0.54685 1.2454267,1.3345671 0 0 1 -0.231448,0.54681 c -0.912419,1.57056 -0.883398,3.54598 -0.783739,5.39192 0.09973,1.84592 0.223098,3.79576 -0.546744,5.4503 -0.209399,0.45426 -0.481703,0.87005 -0.680867,1.32429 -0.466388,1.02883 -0.634946,4.31936 -0.362538,5.42473 l 34.129522,1.04773 c -0.733816,-2.16155 2.537358,-28.49144 2.537358,-28.49144 z"
       fill="#f9a826"
       id="path13"
       style="stroke-width:0.188661;fill:#fdca40;fill-opacity:1" />
    <path
       id="eb41f72e-aba6-4a16-bf55-c7027d2f1a4b"
       data-name="Path 1421"
       d="m 14.170709,151.0151 a 6.0257024,6.4569867 0 0 0 -0.0204,1.59244 l 0.489149,7.52784 c 0.0459,0.70952 0.09109,1.41728 0.153285,2.12501 0.117418,1.37353 0.292696,2.73611 0.510297,4.09673 a 0.68088969,0.72962377 0 0 0 0.697843,0.70951 c 2.153296,0.48823 4.378034,0.46871 6.575616,0.33571 3.353416,-0.20058 11.932697,-0.58003 12.456847,-1.30967 0.524152,-0.7296 0.218712,-1.90978 -0.464725,-2.49976 -0.683437,-0.58999 -12.00506,-2.02835 -12.00506,-2.02835 0.110676,-0.93937 0.444326,-1.82405 0.760893,-2.71597 0.568632,-1.58189 1.099707,-3.21573 1.10992,-4.9103 0.01013,-1.69459 -0.585573,-3.47627 -1.88102,-4.44709 -1.065614,-0.79699 -2.437609,-0.94483 -3.736145,-0.91202 -0.944786,0.0292 -2.577215,-0.21347 -3.440171,0.1824 -0.682892,0.32224 -1.078739,1.53699 -1.206315,2.25352 z"
       fill="#fbbebe"
       style="stroke-width:0.188661" />
    <path
       id="a363f2f7-2464-40a1-ad01-344825aa0b75"
       data-name="Path 1423"
       d="m 56.800677,168.03179 c 0.566795,-0.23162 1.191561,-0.14785 1.799177,-0.0602 1.95592,0.2863 3.940632,0.58003 5.753488,1.41727 0.851107,0.39058 1.661394,0.91203 2.236761,1.67954 0.510297,0.69134 0.80847,1.53775 1.091141,2.37127 l 0.653739,1.91897 a 8.6205304,9.2375371 0 0 1 0.570253,2.24902 c 0.204308,2.29648 -1.261355,4.46154 -3.104831,5.65459 -1.843463,1.19306 -4.013708,1.61783 -6.128,2.06291 -2.114292,0.44507 -4.236787,0.93742 -6.342339,1.45924 a 25.530871,27.35822 0 0 1 -2.98399,0.62925 c -2.253716,0.27341 -4.609488,-0.12952 -6.750942,0.66948 -0.851122,0.31931 -1.686915,0.79348 -2.569747,1.01415 a 15.99153,17.136109 0 0 1 -1.777121,0.29002 l -4.052902,0.49605 a 22.109403,23.691865 0 0 1 -2.485178,0.20429 c -1.770197,0 -3.511613,-0.44918 -5.230601,-0.89837 a 1.3227249,1.4173977 0 0 1 -0.510304,-0.22068 c -0.272275,-0.22986 -0.331875,-0.63666 -0.371061,-1.00499 q -0.260433,-2.44607 -0.45563,-4.89743 c -0.0408,-0.53081 -0.0715,-1.10538 0.199206,-1.55219 0.340441,-0.54684 1.004386,-0.7187 1.610367,-0.82455 a 42.023423,45.031213 0 0 1 7.775736,-0.57827 c 0.988897,-1.05968 2.619677,-1.06514 3.915111,-1.64165 a 11.645314,12.478817 0 0 0 1.380554,-0.80443 18.042952,19.334361 0 0 1 7.579827,-2.56638 7.0557324,7.5607402 0 0 0 1.550766,-0.23708 c 1.002381,-0.33377 1.916742,-1.24228 2.94646,-1.01965 0.127576,-0.3775 0.216155,-0.88293 0.510297,-1.14188 0.145803,-0.13317 0.326782,-0.22244 0.461288,-0.36482 0.284299,-0.30818 0.30982,-0.79348 0.267176,-1.2239 -0.04262,-0.43045 -0.137965,-0.8718 -0.0341,-1.29149 a 1.6659143,1.7851508 0 0 1 0.188992,-0.45055 c 0.508844,-0.94368 1.279944,-1.42879 2.306386,-1.33758 z"
       fill="#2f2e41"
       style="stroke-width:0.188661" />
    <path
       id="b53ad979-99f4-4c6e-a0f8-957060c42096"
       data-name="Path 1430"
       d="m 17.022385,137.62876 a 1.7618313,1.8879328 0 0 0 -0.377803,0.6476 28.573378,30.618494 0 0 0 -2.400057,10.51004 0.98051032,1.0506895 0 0 1 -0.11067,0.50892 2.0781643,2.2269072 0 0 1 -0.250226,0.29002 0.93968611,1.0069434 0 0 0 0.112332,1.41894 q 0.02319,0.0209 0.04757,0.0403 c 0.280848,-0.56637 0.95317,-0.75151 1.550775,-0.80071 2.861338,-0.24257 5.656336,1.18387 8.526246,1.07626 -0.202476,-0.74973 -0.493718,-1.47018 -0.658839,-2.22891 -0.730279,-3.36903 1.091142,-7.03707 -0.02557,-10.28209 -0.223071,-0.64938 -0.595773,-1.28779 -1.182988,-1.57234 a 3.1512126,3.3767579 0 0 0 -0.757439,-0.21484 c -0.72518,-0.14035 -2.168778,-0.74057 -2.869905,-0.49978 -0.258791,0.0894 -0.36086,0.35018 -0.575366,0.50777 -0.32586,0.22303 -0.758162,0.30506 -1.028265,0.59878 z"
       fill="#f9a826"
       style="stroke-width:0.188661;fill:#fdca40;fill-opacity:1" />
    <path
       id="a1197c30-bfd4-4098-bcf9-2468e7a33bf1"
       data-name="Path 1421"
       d="m 56.760562,148.76158 c -0.862963,-0.39587 -2.495392,-0.15331 -3.440165,-0.1824 -1.298549,-0.0327 -2.67053,0.11503 -3.73615,0.91202 -1.29544,0.97082 -1.891221,2.7525 -1.881015,4.44709 0.0102,1.69457 0.541288,3.32841 1.109914,4.9103 0.316561,0.89192 0.65026,1.7766 0.760887,2.71597 0,0 -11.321609,1.43836 -12.005046,2.02835 -0.683445,0.58998 -0.988898,1.77016 -0.464747,2.49976 0.524151,0.72964 16.879174,1.46219 19.032471,0.97396 a 0.68088969,0.72962377 0 0 0 0.697842,-0.70951 c 0.217615,-1.36062 0.392928,-2.7232 0.510297,-4.09673 0.06218,-0.70773 0.107372,-1.41549 0.153279,-2.12501 l 0.489157,-7.52784 a 6.0258811,6.4571785 0 0 0 -0.02047,-1.59244 c -0.127576,-0.71653 -0.523417,-1.93128 -1.206323,-2.25352 z"
       fill="#fbbebe"
       style="stroke-width:0.188661" />
    <path
       id="ebe46053-6aac-4aa7-8615-21a6fa79538d"
       data-name="Path 1430"
       d="m 54.086929,137.03 c -0.214499,-0.15761 -0.316561,-0.41834 -0.575353,-0.50778 -0.701126,-0.24081 -2.144738,0.35935 -2.869911,0.49977 a 3.1512217,3.3767677 0 0 0 -0.757428,0.21481 c -0.587217,0.28455 -0.959919,0.92297 -1.183004,1.57233 -1.116641,3.24503 0.704773,6.91307 -0.02543,10.28211 -0.16512,0.75872 -0.456356,1.47918 -0.658832,2.22891 2.869898,0.10756 5.66491,-1.31883 8.526248,-1.07627 0.597591,0.0492 1.269927,0.23434 1.550767,0.8007 q 0.02445,-0.0193 0.04771,-0.0403 a 0.93968611,1.0069434 0 0 0 0.112332,-1.41894 2.0779111,2.2266357 0 0 1 -0.250234,-0.29001 0.98049753,1.0506759 0 0 1 -0.110676,-0.50894 28.573336,30.618447 0 0 0 -2.400065,-10.51002 1.7618313,1.8879328 0 0 0 -0.37781,-0.6476 c -0.270089,-0.29373 -0.702391,-0.37576 -1.028251,-0.59878 z"
       fill="#f9a826"
       style="stroke-width:0.188661;fill:#fdca40;fill-opacity:1" />
    <polygon
       points="215.975,543.166 220.005,512.846 299.243,523.378 296.513,543.921 "
       fill="#ffb6b6"
       id="polygon20"
       transform="matrix(0.18225099,0,0,0.19529545,4.3358372,84.232262)" />
    <path
       d="m 62.629386,185.93918 -1.60454,12.93641 -0.152699,-0.0218 a 4.7404647,5.0797595 0 0 1 -4.074488,-5.70426 l 4.8e-5,-3.1e-4 0.980019,-7.90111 z"
       fill="#2f2e41"
       id="path22"
       style="stroke-width:0.188661" />
    <path
       id="a0b0f7ea-4ed9-4447-aa64-e2335b2c3196"
       data-name="Path 1427"
       d="m 24.341415,170.06207 c 0,0.1824 -0.267182,0 -0.291606,-0.19529 -0.187175,-1.47566 -1.280126,-2.69235 -2.553336,-3.28331 -1.27321,-0.59097 -2.723556,-0.62202 -4.102286,-0.48159 -2.085138,0.21149 -4.425785,1.06707 -5.18832,3.15557 -0.180428,0.48823 -1.870626,4.83551 -1.705695,5.81317 0.444326,2.60836 2.109018,4.83921 4.126166,6.38419 2.017154,1.54499 4.37403,2.46795 6.725073,3.3005 a 116.63142,124.97922 0 0 0 19.064711,4.87927 c 1.048497,0.1697 2.107376,0.32653 3.111573,0.68763 0.898691,0.32283 1.739592,0.80618 2.618043,1.18564 2.042669,0.87883 4.240245,1.19287 6.417245,1.50124 0.371061,0.0513 0.796608,0.0875 1.07072,-0.18241 0.354112,-0.35153 0.236925,-0.96496 0.136141,-1.47018 a 7.378978,7.9071216 0 0 1 0.869886,-5.61066 c 0.364502,-0.65658 0.838351,-1.32976 0.769467,-2.08965 -0.08168,-0.88646 -0.905608,-1.51393 -1.726108,-1.6563 -0.820493,-0.1424 -1.654478,0.0676 -2.478612,0.18242 a 1.3276985,1.4227273 0 0 1 -0.842549,-0.0894 1.6830569,1.8035201 0 0 1 -0.33024,-0.31366 3.7328647,4.0000416 0 0 0 -4.347412,-0.65111 c -0.30472,0.18241 -0.765456,-0.22439 -1.082563,-0.37752 l -3.579777,-1.73656 c -4.112501,-1.99358 -8.245408,-3.99652 -12.59628,-5.25871 a 2.6452802,2.8346139 0 0 1 -0.970306,-0.43239 c -0.216155,-0.18241 -0.371061,-0.42966 -0.570261,-0.63294 -0.434119,-0.43962 -1.03882,-0.61479 -1.559163,-0.92669 -0.520316,-0.31189 -1.103703,-1.07568 -0.984511,-1.70121 z"
       fill="#2f2e41"
       style="stroke-width:0.188661" />
    <path
       d="M 55.00806,170.85301 H 19.954118 a 1.545452,1.6560663 0 0 1 -1.543711,-1.6541 v -22.78834 a 1.545452,1.6560663 0 0 1 1.543711,-1.65411 H 55.00806 a 1.545452,1.6560663 0 0 1 1.543704,1.65411 v 22.78834 a 1.545452,1.6560663 0 0 1 -1.543704,1.6541 z"
       fill="#3f3d56"
       id="path29"
       style="stroke-width:0.188661" />
    <circle
       style="fill:#ffffff;stroke-width:0.136925;fill-opacity:1"
       id="path906"
       cx="54.581799"
       cy="100.30943"
       r="3.5" />
    <circle
       style="fill:#ffffff;stroke-width:0.16393;fill-opacity:1"
       id="path908"
       cx="71.233772"
       cy="89.784225"
       r="5" />
    <ellipse
       style="fill:#ffffff;stroke-width:0.319946"
       id="path1058"
       cx="96.675163"
       cy="61.11908"
       rx="25.900934"
       ry="27.459469" />
    <ellipse
       style="fill:#ffffff;stroke-width:0.319946"
       id="path1060"
       cx="129.50732"
       cy="49.924034"
       rx="47.059444"
       ry="43.723923" />
    <ellipse
       style="fill:#ffffff;stroke-width:0.319946"
       id="path1062"
       cx="161.97473"
       cy="58.161896"
       rx="29.913757"
       ry="32.528912" />
    <ellipse
       style="fill:#ffffff;stroke-width:0.319946"
       id="path1064"
       cx="100.87042"
       cy="44.009697"
       rx="29.366554"
       ry="30.205416" />
  </g>
</svg>
